<?xml version="1.0" encoding="UTF-8" standalone="no"?><!DOCTYPE svg PUBLIC "-//W3C//DTD SVG 1.1//EN" "http://www.w3.org/Graphics/SVG/1.1/DTD/svg11.dtd"><svg width="100%" height="100%" viewBox="0 0 380 80" version="1.1" xmlns="http://www.w3.org/2000/svg" xmlns:xlink="http://www.w3.org/1999/xlink" xml:space="preserve" xmlns:serif="http://www.serif.com/" style="fill-rule:evenodd;clip-rule:evenodd;stroke-linecap:round;stroke-linejoin:round;stroke-miterlimit:1.5;"><path d="M366.205,34.701l0,10.597c0,12.373 -10.045,22.417 -22.417,22.417l-297.29,0c-12.373,0 -22.417,-10.045 -22.417,-22.417l0,-10.597c0,-12.373 10.045,-22.417 22.417,-22.417l297.29,0c12.373,0 22.417,10.045 22.417,22.417Z" style="fill:#242f40;stroke:#cca43b;stroke-opacity:0.3;stroke-width:2.92px;"/><g><path d="M319.013,37.934c0.849,-7.88 6.591,-12.89 14.543,-12.89c6.691,0 11.797,3.476 13.807,9.192l-3.282,0.004c-1.618,-4.104 -5.233,-6.205 -10.524,-6.205c-6.647,0 -10.617,3.354 -11.296,9.868l-3.247,0.031Zm29.145,-0.247c0.091,0.745 0.137,1.516 0.137,2.312c0,9.06 -6.026,14.955 -14.739,14.955c-8.209,0 -14.063,-5.339 -14.61,-13.663l3.246,-0.031c0.419,7.062 4.439,10.703 11.364,10.703c7.369,0 11.488,-4.075 11.488,-11.964c0,-0.81 -0.043,-1.58 -0.129,-2.309l3.243,-0.003Z" style="fill:#cca43b;"/><path d="M322.14,38.945c-0.022,0.293 -0.017,1.383 0.004,1.635l-1.871,-0.01l1.867,-1.624Z" style="fill:#cca43b;"/><path d="M345.954,34.871c-0.329,0.007 -1.486,0.01 -1.749,0.01l0.531,1.702l1.219,-1.712Z" style="fill:#cca43b;"/></g><g transform="matrix(0.27111,0,0,0.27111,19.254829,38.778575)"><g><g transform="matrix(104.635332,0,0,104.635332,80.013201,41.881188)"><path d="M0.484,-0l0.278,-0.67l-0.18,0l-0.198,0.518l-0.01,0l-0.201,-0.518l-0.181,0l0.278,0.67l0.214,-0Z" style="fill:#fff;fill-rule:nonzero;"/></g><g transform="matrix(104.635332,0,0,104.635332,158.908241,41.881188)"><path d="M0.19,-0.552l0,-0.118l-0.15,0l-0,0.118l0.15,0Zm0,0.552l0,-0.501l-0.15,0l-0,0.501l0.15,-0Z" style="fill:#fff;fill-rule:nonzero;"/></g><g transform="matrix(104.635332,0,0,104.635332,182.869732,41.881188)"><path d="M0.413,-0l0.229,-0.501l-0.164,0l-0.151,0.355l-0.01,0l-0.15,-0.355l-0.167,0l0.228,0.501l0.185,-0Z" style="fill:#fff;fill-rule:nonzero;"/></g><g transform="matrix(104.635332,0,0,104.635332,250.045615,41.881188)"><path d="M0.306,0.01c0.159,0 0.265,-0.076 0.265,-0.185l0,-0.011l-0.15,0l0,0.01c0,0.043 -0.031,0.066 -0.12,0.066c-0.097,0 -0.133,-0.033 -0.137,-0.11l0.408,0c0.002,-0.017 0.004,-0.03 0.004,-0.048c0,-0.157 -0.109,-0.243 -0.273,-0.243c-0.165,0 -0.278,0.101 -0.278,0.261c-0,0.178 0.114,0.26 0.281,0.26Zm-0.006,-0.404c0.088,0 0.128,0.029 0.132,0.095l-0.266,0c0.007,-0.065 0.045,-0.095 0.134,-0.095Z" style="fill:#fff;fill-rule:nonzero;"/></g><g transform="matrix(104.635332,0,0,104.635332,312.826814,41.881188)"><path d="M0.19,-0l0,-0.29c0,-0.063 0.024,-0.094 0.091,-0.094c0.061,0 0.083,0.024 0.083,0.079l0,0.052l0.15,0l0,-0.083c0,-0.098 -0.046,-0.175 -0.158,-0.175c-0.101,0 -0.154,0.062 -0.168,0.143l-0.009,0l0,-0.133l-0.139,0l-0,0.501l0.15,-0Z" style="fill:#fff;fill-rule:nonzero;"/></g><g transform="matrix(104.635332,0,0,104.635332,384.18811,41.881188)"><path d="M0.194,0.01c0.111,0 0.181,-0.047 0.204,-0.125l0.008,0l0,0.115l0.14,-0l0,-0.294c0,-0.131 -0.079,-0.217 -0.246,-0.217c-0.165,0 -0.269,0.086 -0.269,0.21l0,0.003l0.151,0l0,-0.004c0,-0.057 0.031,-0.077 0.107,-0.077c0.08,0 0.109,0.018 0.109,0.083l0,0.019l-0.215,0.022c-0.107,0.011 -0.162,0.057 -0.162,0.131c0,0.084 0.065,0.134 0.173,0.134Zm-0.022,-0.144c0,-0.024 0.016,-0.034 0.052,-0.037l0.174,-0.02c-0.004,0.071 -0.059,0.095 -0.161,0.095c-0.044,0 -0.065,-0.011 -0.065,-0.038Z" style="fill:#fff;fill-rule:nonzero;"/></g><g transform="matrix(104.635332,0,0,104.635332,461.199714,41.881188)"><path d="M0.306,0.01c0.159,0 0.265,-0.076 0.265,-0.185l0,-0.011l-0.15,0l0,0.01c0,0.043 -0.031,0.066 -0.12,0.066c-0.097,0 -0.133,-0.033 -0.137,-0.11l0.408,0c0.002,-0.017 0.004,-0.03 0.004,-0.048c0,-0.157 -0.109,-0.243 -0.273,-0.243c-0.165,0 -0.278,0.101 -0.278,0.261c-0,0.178 0.114,0.26 0.281,0.26Zm-0.006,-0.404c0.088,0 0.128,0.029 0.132,0.095l-0.266,0c0.007,-0.065 0.045,-0.095 0.134,-0.095Z" style="fill:#fff;fill-rule:nonzero;"/></g><g transform="matrix(104.635332,0,0,104.635332,523.980913,41.881188)"><path d="M0.177,-0l0.129,-0.168l0.008,0l0.133,0.168l0.183,-0l-0.2,-0.247l0,-0.009l0.2,-0.245l-0.181,0l-0.129,0.169l-0.008,0l-0.133,-0.169l-0.183,0l0.2,0.248l0,0.008l-0.2,0.245l0.181,-0Z" style="fill:#fff;fill-rule:nonzero;"/></g><g transform="matrix(104.635332,0,0,104.635332,589.482631,41.881188)"><path d="M0.19,0.17l0,-0.305l0.007,0c0.017,0.088 0.081,0.145 0.197,0.145c0.151,-0 0.235,-0.101 0.235,-0.26c0,-0.159 -0.086,-0.261 -0.24,-0.261c-0.118,0 -0.182,0.051 -0.2,0.147l-0.01,0l0,-0.137l-0.139,0l-0,0.671l0.15,-0Zm0,-0.413l0,-0.008c0,-0.089 0.05,-0.122 0.147,-0.122c0.095,0 0.14,0.031 0.14,0.123c0,0.091 -0.045,0.123 -0.141,0.123c-0.094,0 -0.146,-0.03 -0.146,-0.116Z" style="fill:#fff;fill-rule:nonzero;"/></g><g transform="matrix(104.635332,0,0,104.635332,657.600231,41.881188)"><path d="M0.306,0.01c0.159,0 0.265,-0.076 0.265,-0.185l0,-0.011l-0.15,0l0,0.01c0,0.043 -0.031,0.066 -0.12,0.066c-0.097,0 -0.133,-0.033 -0.137,-0.11l0.408,0c0.002,-0.017 0.004,-0.03 0.004,-0.048c0,-0.157 -0.109,-0.243 -0.273,-0.243c-0.165,0 -0.278,0.101 -0.278,0.261c-0,0.178 0.114,0.26 0.281,0.26Zm-0.006,-0.404c0.088,0 0.128,0.029 0.132,0.095l-0.266,0c0.007,-0.065 0.045,-0.095 0.134,-0.095Z" style="fill:#fff;fill-rule:nonzero;"/></g><g transform="matrix(104.635332,0,0,104.635332,720.38143,41.881188)"><path d="M0.19,-0l0,-0.29c0,-0.063 0.024,-0.094 0.091,-0.094c0.061,0 0.083,0.024 0.083,0.079l0,0.052l0.15,0l0,-0.083c0,-0.098 -0.046,-0.175 -0.158,-0.175c-0.101,0 -0.154,0.062 -0.168,0.143l-0.009,0l0,-0.133l-0.139,0l-0,0.501l0.15,-0Z" style="fill:#fff;fill-rule:nonzero;"/></g><g transform="matrix(104.635332,0,0,104.635332,775.628885,41.881188)"><path d="M0.19,-0.552l0,-0.118l-0.15,0l-0,0.118l0.15,0Zm0,0.552l0,-0.501l-0.15,0l-0,0.501l0.15,-0Z" style="fill:#fff;fill-rule:nonzero;"/></g><g transform="matrix(104.635332,0,0,104.635332,799.590376,41.881188)"><path d="M0.239,-0.56l0.056,-0.058l0.01,0l0.056,0.058l0.161,0l-0.133,-0.13l-0.179,0l-0.132,0.13l0.161,0Zm0.067,0.57c0.159,-0 0.265,-0.076 0.265,-0.185l0,-0.011l-0.15,0l0,0.01c0,0.043 -0.031,0.066 -0.12,0.066c-0.097,0 -0.133,-0.033 -0.137,-0.11l0.408,0c0.002,-0.017 0.004,-0.03 0.004,-0.048c0,-0.157 -0.109,-0.243 -0.273,-0.243c-0.165,0 -0.278,0.101 -0.278,0.261c-0,0.178 0.114,0.26 0.281,0.26Zm-0.006,-0.404c0.088,0 0.128,0.029 0.132,0.095l-0.266,0c0.007,-0.065 0.045,-0.095 0.134,-0.095Z" style="fill:#fff;fill-rule:nonzero;"/></g><g transform="matrix(104.635332,0,0,104.635332,862.371575,41.881188)"><path d="M0.19,-0l0,-0.253c0,-0.085 0.034,-0.123 0.129,-0.123c0.092,0 0.125,0.034 0.125,0.114l0,0.262l0.15,-0l0,-0.312c0,-0.111 -0.065,-0.199 -0.202,-0.199c-0.131,0 -0.191,0.08 -0.204,0.164l-0.009,0l0,-0.154l-0.139,0l-0,0.501l0.15,-0Z" style="fill:#fff;fill-rule:nonzero;"/></g><g transform="matrix(104.635332,0,0,104.635332,928.291834,41.881188)"><path d="M0.307,0.01c0.161,0 0.271,-0.087 0.271,-0.216l0,-0.014l-0.149,0l0,0.008c0,0.064 -0.047,0.087 -0.125,0.087c-0.089,0 -0.13,-0.033 -0.13,-0.125c0,-0.093 0.041,-0.126 0.13,-0.126c0.078,0 0.125,0.023 0.125,0.087l0,0.008l0.149,0l0,-0.014c0,-0.13 -0.11,-0.216 -0.271,-0.216c-0.172,0 -0.282,0.101 -0.282,0.261c-0,0.158 0.11,0.26 0.282,0.26Z" style="fill:#fff;fill-rule:nonzero;"/></g><g transform="matrix(104.635332,0,0,104.635332,991.386939,41.881188)"><path d="M0.19,-0.552l0,-0.118l-0.15,0l-0,0.118l0.15,0Zm0,0.552l0,-0.501l-0.15,0l-0,0.501l0.15,-0Z" style="fill:#fff;fill-rule:nonzero;"/></g><g transform="matrix(104.635332,0,0,104.635332,1015.34843,41.881188)"><path d="M0.194,0.01c0.111,0 0.181,-0.047 0.204,-0.125l0.008,0l0,0.115l0.14,-0l0,-0.294c0,-0.131 -0.079,-0.217 -0.246,-0.217c-0.165,0 -0.269,0.086 -0.269,0.21l0,0.003l0.151,0l0,-0.004c0,-0.057 0.031,-0.077 0.107,-0.077c0.08,0 0.109,0.018 0.109,0.083l0,0.019l-0.215,0.022c-0.107,0.011 -0.162,0.057 -0.162,0.131c0,0.084 0.065,0.134 0.173,0.134Zm-0.022,-0.144c0,-0.024 0.016,-0.034 0.052,-0.037l0.174,-0.02c-0.004,0.071 -0.059,0.095 -0.161,0.095c-0.044,0 -0.065,-0.011 -0.065,-0.038Z" style="fill:#fff;fill-rule:nonzero;"/></g></g></g></svg>